<svg width="1200" height="800" viewBox="0 0 1200 800" fill="none" xmlns="http://www.w3.org/2000/svg">
  <defs>
    <linearGradient id="card" x1="0" y1="0" x2="1" y2="1">
      <stop offset="0" stop-color="#ffffff" />
      <stop offset="1" stop-color="#f1f5f9" />
    </linearGradient>
    <linearGradient id="panel" x1="0" y1="0" x2="0" y2="1">
      <stop offset="0" stop-color="#f8fafc" />
      <stop offset="1" stop-color="#eef2f6" />
    </linearGradient>
    <linearGradient id="chartFill" x1="0" y1="0" x2="0" y2="1">
      <stop offset="0" stop-color="#0EA5A4" stop-opacity="0.35" />
      <stop offset="1" stop-color="#0EA5A4" stop-opacity="0" />
    </linearGradient>
    <filter id="shadow" x="20" y="20" width="1160" height="760" filterUnits="userSpaceOnUse" color-interpolation-filters="sRGB">
      <feDropShadow dx="0" dy="18" stdDeviation="24" flood-color="#000000" flood-opacity="0.18" />
    </filter>
  </defs>

  <g filter="url(#shadow)">
    <rect x="60" y="60" width="1080" height="680" rx="40" fill="url(#card)" />
  </g>

  <rect x="100" y="120" width="200" height="560" rx="26" fill="url(#panel)" />
  <rect x="100" y="120" width="200" height="70" rx="26" fill="#ffffff" />
  <circle cx="135" cy="155" r="14" fill="#0EA5A4" />
  <rect x="160" y="147" width="90" height="16" rx="8" fill="#111827" opacity="0.2" />

  <rect x="120" y="220" width="160" height="34" rx="12" fill="#e2e8f0" />
  <rect x="120" y="270" width="160" height="34" rx="12" fill="#f8fafc" />
  <rect x="120" y="320" width="160" height="34" rx="12" fill="#f8fafc" />
  <rect x="120" y="370" width="160" height="34" rx="12" fill="#f8fafc" />

  <rect x="330" y="120" width="770" height="70" rx="20" fill="#ffffff" />
  <rect x="360" y="145" width="160" height="16" rx="8" fill="#0f172a" opacity="0.2" />
  <rect x="980" y="142" width="90" height="22" rx="11" fill="#0EA5A4" />

  <rect x="330" y="220" width="230" height="110" rx="18" fill="#ffffff" stroke="#e5e7eb" />
  <rect x="580" y="220" width="230" height="110" rx="18" fill="#ffffff" stroke="#e5e7eb" />
  <rect x="830" y="220" width="270" height="110" rx="18" fill="#ffffff" stroke="#e5e7eb" />

  <rect x="360" y="245" width="90" height="10" rx="5" fill="#0f172a" opacity="0.2" />
  <rect x="360" y="265" width="60" height="18" rx="9" fill="#0EA5A4" />

  <rect x="610" y="245" width="110" height="10" rx="5" fill="#0f172a" opacity="0.2" />
  <rect x="610" y="265" width="80" height="18" rx="9" fill="#0EA5A4" opacity="0.7" />

  <rect x="860" y="245" width="120" height="10" rx="5" fill="#0f172a" opacity="0.2" />
  <rect x="860" y="265" width="90" height="18" rx="9" fill="#0EA5A4" opacity="0.6" />

  <rect x="330" y="360" width="520" height="230" rx="22" fill="#ffffff" stroke="#e5e7eb" />
  <rect x="360" y="385" width="140" height="12" rx="6" fill="#0f172a" opacity="0.2" />

  <path d="M360 540 L420 500 L500 520 L580 470 L660 460 L740 420 L820 440" stroke="#0EA5A4" stroke-width="4" fill="none" stroke-linecap="round" stroke-linejoin="round" />
  <path d="M360 540 L420 500 L500 520 L580 470 L660 460 L740 420 L820 440 L820 560 L360 560 Z" fill="url(#chartFill)" />

  <rect x="330" y="610" width="770" height="90" rx="22" fill="#ffffff" stroke="#e5e7eb" />
  <rect x="360" y="635" width="180" height="10" rx="5" fill="#0f172a" opacity="0.2" />
  <rect x="360" y="655" width="680" height="10" rx="5" fill="#0f172a" opacity="0.1" />
  <rect x="360" y="675" width="620" height="10" rx="5" fill="#0f172a" opacity="0.08" />

  <rect x="880" y="360" width="220" height="230" rx="22" fill="#0f172a" />
  <rect x="905" y="390" width="150" height="12" rx="6" fill="#f8fafc" opacity="0.7" />
  <rect x="905" y="420" width="180" height="12" rx="6" fill="#f8fafc" opacity="0.5" />
  <rect x="905" y="470" width="140" height="10" rx="5" fill="#0EA5A4" />
  <rect x="905" y="490" width="120" height="10" rx="5" fill="#0EA5A4" opacity="0.7" />
  <rect x="905" y="510" width="160" height="10" rx="5" fill="#0EA5A4" opacity="0.6" />
</svg>
