<svg width="900" height="900" viewBox="0 0 900 900" fill="none" xmlns="http://www.w3.org/2000/svg">
  <rect width="900" height="900" rx="56" fill="#FFFFFF"/>
  <rect x="70" y="90" width="760" height="720" rx="48" fill="#F8FAFC" stroke="#E5E7EB"/>

  <rect x="200" y="170" width="500" height="560" rx="36" fill="#FFFFFF" stroke="#E5E7EB"/>
  <rect x="240" y="220" width="220" height="14" rx="7" fill="#CBD5F5"/>
  <rect x="240" y="250" width="320" height="12" rx="6" fill="#E2E8F0"/>
  <rect x="240" y="290" width="300" height="12" rx="6" fill="#E2E8F0"/>

  <rect x="240" y="350" width="420" height="200" rx="28" fill="#F1F5F9"/>
  <rect x="270" y="390" width="260" height="12" rx="6" fill="#E2E8F0"/>
  <rect x="270" y="420" width="220" height="12" rx="6" fill="#E2E8F0"/>
  <rect x="270" y="450" width="240" height="12" rx="6" fill="#E2E8F0"/>

  <path d="M600 420 C660 400 700 440 700 500 C700 590 600 650 560 670 C520 650 420 590 420 500 C420 440 460 400 520 420" fill="#0EA5A4" fill-opacity="0.14"/>
  <path d="M560 430 C610 410 640 440 640 490 C640 560 560 610 560 610 C560 610 480 560 480 490 C480 440 510 410 560 430" fill="#0EA5A4"/>
  <path d="M530 520 L552 542 L595 498" stroke="#FFFFFF" stroke-width="6" stroke-linecap="round" stroke-linejoin="round"/>

  <rect x="240" y="590" width="320" height="14" rx="7" fill="#E2E8F0"/>
  <rect x="240" y="620" width="280" height="12" rx="6" fill="#E2E8F0"/>
  <rect x="240" y="650" width="200" height="12" rx="6" fill="#E2E8F0"/>
</svg>
